<svg width="663" height="166" viewBox="0 0 663 166" fill="none" xmlns="http://www.w3.org/2000/svg">
<g clip-path="url(#clip0_3_2)">
<path d="M101.51 11H71.4899C66.39 11 62.3332 15.06 62.3332 20.164V50.2081C62.3332 55.3121 66.39 59.3721 71.4899 59.3721H101.51C106.61 59.3721 110.666 55.3121 110.666 50.2081V20.164C110.666 15.06 106.494 11 101.51 11Z" fill="white"/>
<path d="M71.4899 156H101.51C106.61 156 110.666 151.94 110.666 146.836V116.792C110.666 111.688 106.61 107.628 101.51 107.628H71.4899C66.39 107.628 62.3332 111.688 62.3332 116.792V146.836C62.3332 151.824 66.5059 156 71.4899 156Z" fill="white"/>
<path d="M110.667 68.4202V98.4643C110.667 103.568 114.723 107.628 119.823 107.628H149.843C154.943 107.628 159 103.568 159 98.4643V68.4202C159 63.3162 154.943 59.2562 149.843 59.2562H119.823C114.723 59.2562 110.667 63.4322 110.667 68.4202Z" fill="white"/>
<path d="M14 68.4202V98.4643C14 103.568 18.0568 107.628 23.1567 107.628H53.1766C58.2766 107.628 62.3333 103.568 62.3333 98.4643V68.4202C62.3333 63.3162 58.2766 59.2562 53.1766 59.2562H23.1567C18.1727 59.2562 14 63.4322 14 68.4202Z" fill="white"/>
</g>
<path d="M205.608 39.7273H224.955L250.864 102.966H251.886L277.795 39.7273H297.142V127H281.972V67.0426H281.162L257.043 126.744H245.707L221.588 66.9148H220.778V127H205.608V39.7273ZM335.453 128.278C328.891 128.278 323.223 126.915 318.451 124.188C313.706 121.432 310.056 117.54 307.499 112.511C304.942 107.455 303.664 101.503 303.664 94.6562C303.664 87.9233 304.942 82.0142 307.499 76.929C310.084 71.8153 313.692 67.8381 318.323 64.9972C322.953 62.1278 328.394 60.6932 334.644 60.6932C338.678 60.6932 342.485 61.3466 346.064 62.6534C349.672 63.9318 352.854 65.9205 355.61 68.6193C358.394 71.3182 360.581 74.7557 362.172 78.9318C363.763 83.0795 364.559 88.0227 364.559 93.7614V98.4915H310.908V88.0938H349.772C349.743 85.1392 349.104 82.5114 347.854 80.2102C346.604 77.8807 344.857 76.0483 342.613 74.7131C340.397 73.3778 337.811 72.7102 334.857 72.7102C331.703 72.7102 328.934 73.4773 326.547 75.0114C324.161 76.517 322.3 78.5057 320.965 80.9773C319.658 83.4205 318.99 86.1051 318.962 89.0312V98.108C318.962 101.915 319.658 105.182 321.05 107.909C322.442 110.608 324.388 112.682 326.888 114.131C329.388 115.551 332.314 116.261 335.666 116.261C337.911 116.261 339.942 115.949 341.76 115.324C343.578 114.67 345.155 113.719 346.49 112.469C347.826 111.219 348.834 109.67 349.516 107.824L363.919 109.443C363.01 113.25 361.277 116.574 358.72 119.415C356.192 122.227 352.953 124.415 349.005 125.977C345.056 127.511 340.539 128.278 335.453 128.278ZM394.699 128.151C389.557 128.151 384.954 126.83 380.892 124.188C376.829 121.545 373.619 117.71 371.261 112.682C368.903 107.653 367.724 101.545 367.724 94.358C367.724 87.0852 368.917 80.9489 371.304 75.9489C373.719 70.9205 376.971 67.1278 381.062 64.571C385.153 61.9858 389.713 60.6932 394.741 60.6932C398.577 60.6932 401.73 61.3466 404.202 62.6534C406.673 63.9318 408.633 65.4801 410.082 67.2983C411.531 69.0881 412.653 70.7784 413.449 72.3693H414.088V39.7273H429.557V127H414.386V116.688H413.449C412.653 118.278 411.503 119.969 409.997 121.759C408.491 123.52 406.503 125.026 404.031 126.276C401.56 127.526 398.449 128.151 394.699 128.151ZM399.003 115.494C402.27 115.494 405.054 114.614 407.355 112.852C409.656 111.062 411.403 108.577 412.596 105.395C413.79 102.213 414.386 98.5057 414.386 94.2727C414.386 90.0398 413.79 86.3608 412.596 83.2358C411.432 80.1108 409.699 77.6818 407.398 75.9489C405.125 74.2159 402.327 73.3494 399.003 73.3494C395.565 73.3494 392.696 74.2443 390.395 76.0341C388.094 77.8239 386.361 80.2955 385.196 83.4489C384.031 86.6023 383.449 90.2102 383.449 94.2727C383.449 98.3636 384.031 102.014 385.196 105.224C386.389 108.406 388.136 110.92 390.437 112.767C392.767 114.585 395.622 115.494 399.003 115.494ZM438.795 127V61.5455H454.221V127H438.795ZM446.551 52.2557C444.107 52.2557 442.005 51.446 440.244 49.8267C438.482 48.179 437.602 46.2045 437.602 43.9034C437.602 41.5739 438.482 39.5994 440.244 37.9801C442.005 36.3324 444.107 35.5085 446.551 35.5085C449.022 35.5085 451.124 36.3324 452.857 37.9801C454.619 39.5994 455.499 41.5739 455.499 43.9034C455.499 46.2045 454.619 48.179 452.857 49.8267C451.124 51.446 449.022 52.2557 446.551 52.2557ZM491.435 128.278C484.901 128.278 479.29 126.844 474.603 123.974C469.944 121.105 466.35 117.142 463.821 112.085C461.321 107 460.071 101.148 460.071 94.5284C460.071 87.8807 461.35 82.0142 463.907 76.929C466.464 71.8153 470.071 67.8381 474.731 64.9972C479.418 62.1278 484.958 60.6932 491.35 60.6932C496.662 60.6932 501.364 61.6733 505.455 63.6335C509.574 65.5653 512.856 68.3068 515.299 71.858C517.742 75.3807 519.134 79.5 519.475 84.2159H504.731C504.134 81.0625 502.714 78.4347 500.469 76.3324C498.253 74.2017 495.285 73.1364 491.563 73.1364C488.41 73.1364 485.64 73.9886 483.253 75.6932C480.867 77.3693 479.006 79.7841 477.671 82.9375C476.364 86.0909 475.711 89.8693 475.711 94.2727C475.711 98.733 476.364 102.568 477.671 105.778C478.978 108.96 480.81 111.418 483.168 113.151C485.554 114.855 488.353 115.707 491.563 115.707C493.836 115.707 495.867 115.281 497.657 114.429C499.475 113.548 500.995 112.284 502.216 110.636C503.438 108.989 504.276 106.986 504.731 104.628H519.475C519.106 109.259 517.742 113.364 515.384 116.943C513.026 120.494 509.816 123.278 505.753 125.295C501.691 127.284 496.918 128.278 491.435 128.278ZM566.661 99.4716V61.5455H582.087V127H567.129V115.366H566.447C564.97 119.031 562.541 122.028 559.161 124.358C555.808 126.687 551.675 127.852 546.76 127.852C542.47 127.852 538.678 126.901 535.382 124.997C532.115 123.065 529.558 120.267 527.712 116.602C525.865 112.909 524.942 108.449 524.942 103.222V61.5455H540.368V100.835C540.368 104.983 541.504 108.278 543.777 110.722C546.05 113.165 549.033 114.386 552.726 114.386C554.999 114.386 557.2 113.832 559.331 112.724C561.462 111.616 563.209 109.969 564.572 107.781C565.964 105.565 566.661 102.795 566.661 99.4716ZM642.483 78.8466L628.42 80.3807C628.022 78.9602 627.326 77.625 626.332 76.375C625.366 75.125 624.059 74.1165 622.411 73.3494C620.764 72.5824 618.747 72.1989 616.36 72.1989C613.15 72.1989 610.451 72.8949 608.264 74.2869C606.105 75.679 605.039 77.483 605.068 79.6989C605.039 81.6023 605.735 83.1506 607.156 84.3438C608.605 85.5369 610.991 86.517 614.315 87.2841L625.48 89.6705C631.673 91.0057 636.275 93.1222 639.286 96.0199C642.326 98.9176 643.86 102.71 643.889 107.398C643.86 111.517 642.653 115.153 640.267 118.307C637.909 121.432 634.627 123.875 630.423 125.636C626.218 127.398 621.389 128.278 615.934 128.278C607.923 128.278 601.474 126.602 596.588 123.25C591.701 119.869 588.789 115.168 587.852 109.145L602.894 107.696C603.576 110.651 605.025 112.881 607.241 114.386C609.457 115.892 612.34 116.645 615.892 116.645C619.556 116.645 622.497 115.892 624.713 114.386C626.957 112.881 628.079 111.02 628.079 108.804C628.079 106.929 627.355 105.381 625.906 104.159C624.485 102.937 622.269 102 619.258 101.347L608.093 99.0028C601.815 97.696 597.17 95.4943 594.159 92.3977C591.147 89.2727 589.656 85.3239 589.684 80.5511C589.656 76.517 590.75 73.0227 592.965 70.0682C595.21 67.0852 598.321 64.7841 602.298 63.1648C606.304 61.517 610.92 60.6932 616.147 60.6932C623.818 60.6932 629.855 62.3267 634.258 65.5938C638.69 68.8608 641.431 73.2784 642.483 78.8466Z" fill="white"/>
<defs>
<clipPath id="clip0_3_2">
<rect width="145" height="145" fill="white" transform="translate(14 11)"/>
</clipPath>
</defs>
</svg>
